<svg xmlns="http://www.w3.org/2000/svg" viewBox="0 0 64 64">
<path fill="#685C53" d="M62,17.893l-1.523,16.179c-0.858-7.286-4.924-15.896-10.257-20.424c0.156-0.256-0.103-1.984,0.122-2.193
	L62,17.893z"/>
<path fill="#FBC7B8" d="M60.477,34.597C60.585,18.911,47.795,5.7,31.901,5.769C15.812,5.839,3.213,18.939,3.32,34.625
    C3.426,50.159,16.101,63,31.901,63C47.702,63,60.37,50.181,60.477,34.597z"/>
<path fill="#626F6F" d="M31.385,51.605c-7.065,0-11.883-2.65-11.957-2.692l0.505-0.898c0.109,0.061,11.003,6.03,23.973-0.463
    l0.461,0.922C39.649,50.835,35.19,51.605,31.385,51.605z"/>
<path fill="#FFFFFF" d="M13.133,40.444l-2.932-2.119l-0.719-4.201l0.296-4.345l1.628-2.806c0,0,4.16-1.35,4.554-1.252
    c0.395,0.099,8.082,0.626,8.082,0.626l4.579,2.148c0,0,0.422,1.748,0.422,2.143c0,0.395-1.652,4.827-1.652,4.827l-1.161,2.235
    c0,0-1.079,1.59-1.473,1.788s-1.791,0.795-2.679,0.894c-0.888,0.099-3.043,0.188-3.438,0.089s-2.858,0.179-2.858,0.179
    L13.133,40.444z"/>
<path fill="#FFFFFF" d="M52.083,39.71l1.652-1.698l1.518-4.246l0.485-4.256l-2.565-2.074c0,0-2.762-1.185-3.157-1.086
    c-0.395,0.099-8.584,0.071-8.584,0.071l-5.333,1.266c0,0-0.19,2.514-0.19,2.909c0,0.395,0.458,5.226,0.458,5.226l2.403,2.083
    c0,0,1.184,1.481,1.578,1.679c0.395,0.198,1.283,1.086,2.17,1.185c0.888,0.099,3.749,0.198,4.144,0.099
    c0.395-0.099,2.653-0.218,2.653-0.218L52.083,39.71z"/>
<circle fill="#505959" cx="19.379" cy="32.256" r="2.488"/>
<circle fill="#505959" cx="44.385" cy="32.256" r="2.488"/>
<path fill="#546162" d="M35.747,26.396L35.747,26.396c0,0-1.217,0.571-2.863,0.571c0,0-1.92,0.007-1.92,0.019
	c-1.393-0.024-2.164-0.251-2.526-0.401c-8.009-4.108-22.47-0.641-22.47-0.641l0.03,2.958c1.44,0.69,1.851,4.63,1.913,4.756
	c1.123,7.931,5.137,7.589,10.213,7.589c8.673,0,10.843-5.761,11.278-9.933c0.309-1.358,1.385-1.508,1.809-1.501h1.496
	c0.564,0,1.468,0.371,1.706,1.611c0,0.001,0.002,0.001,0.002,0.001c0.462,4.162,2.67,9.822,11.266,9.822
	c5.075,0,9.089,0.341,10.213-7.589c0.062-0.125,0.473-4.066,1.913-4.756l0.03-2.958C57.835,25.944,43.826,22.585,35.747,26.396z
	 M16.806,39.93c0,0-5.6,0.377-6.546-3.794c-0.877-3.764-1.435-8.291,3.664-9.282c2.105-0.38,13.785-1.254,13.879,3.324
	C27.608,35.026,26.03,39.93,16.806,39.93z M53.542,36.136c-0.947,4.171-6.546,3.794-6.546,3.794c-9.224,0-10.802-4.904-10.996-9.752
	c0.093-4.578,11.774-3.704,13.879-3.324C54.977,27.845,54.42,32.372,53.542,36.136z"/>
<path fill="#685C53" d="M58.472,5.962c0,0-15.247-4.962-21.556-4.962c-2.944,0-9.386,2.913-15.421,6.021
	c-0.875,0.451-4.553,2.495-8.483,4.69l-0.603-0.603L9.747,8.443v3.566H5.868l2.371,2.373C4.774,16.324,2,17.884,2,17.884
	s1.286,15.281,1.367,15.181c0.356-6.593,2.946-12.636,7.073-17.281c2.588-2.675,9.108-4.664,12.679-4.768
	c11.93,11.906,22.251,6.329,27.301,2.004c0.02-0.017,3.302-3.397,3.302-3.397h-4.667L58.472,5.962z"/>
</svg>
